<svg width="23" height="24" viewBox="0 0 23 24" fill="none" xmlns="http://www.w3.org/2000/svg">
<path d="M11.4752 22.75C5.80453 22.75 1.19531 17.93 1.19531 12C1.19531 6.07 5.80453 1.25 11.4752 1.25C17.1459 1.25 21.7551 6.07 21.7551 12C21.7551 17.93 17.1459 22.75 11.4752 22.75ZM11.4752 2.75C6.59823 2.75 2.62971 6.9 2.62971 12C2.62971 17.1 6.59823 21.25 11.4752 21.25C16.3522 21.25 20.3207 17.1 20.3207 12C20.3207 6.9 16.3522 2.75 11.4752 2.75Z" fill="#DFBFD7"/>
<path d="M11.475 13.75C11.0829 13.75 10.7578 13.41 10.7578 13V8C10.7578 7.59 11.0829 7.25 11.475 7.25C11.8671 7.25 12.1922 7.59 12.1922 8V13C12.1922 13.41 11.8671 13.75 11.475 13.75Z" fill="#DFBFD7"/>
<path d="M11.4753 16.9999C11.351 16.9999 11.2267 16.9699 11.1119 16.9199C10.9972 16.8699 10.892 16.7999 10.7964 16.7099C10.7103 16.6099 10.6434 16.5099 10.5955 16.3799C10.5477 16.2599 10.519 16.1299 10.519 15.9999C10.519 15.8699 10.5477 15.7399 10.5955 15.6199C10.6434 15.4999 10.7103 15.3899 10.7964 15.2899C10.892 15.1999 10.9972 15.1299 11.1119 15.0799C11.3414 14.9799 11.6092 14.9799 11.8387 15.0799C11.9534 15.1299 12.0586 15.1999 12.1543 15.2899C12.2403 15.3899 12.3073 15.4999 12.3551 15.6199C12.4029 15.7399 12.4316 15.8699 12.4316 15.9999C12.4316 16.1299 12.4029 16.2599 12.3551 16.3799C12.3073 16.5099 12.2403 16.6099 12.1543 16.7099C12.0586 16.7999 11.9534 16.8699 11.8387 16.9199C11.7239 16.9699 11.5996 16.9999 11.4753 16.9999Z" fill="#DFBFD7"/>
</svg>
