<svg width="23" height="24" viewBox="0 0 23 24" fill="none" xmlns="http://www.w3.org/2000/svg">
<path d="M8.6062 22.75H14.3438C19.5363 22.75 21.7549 20.43 21.7549 15V9C21.7549 3.57 19.5363 1.25 14.3438 1.25H8.6062C3.41366 1.25 1.19512 3.57 1.19512 9V15C1.19512 20.43 3.41366 22.75 8.6062 22.75ZM14.3438 2.75C18.7522 2.75 20.3205 4.39 20.3205 9V15C20.3205 19.61 18.7522 21.25 14.3438 21.25H8.6062C4.1978 21.25 2.62952 19.61 2.62952 15V9C2.62952 4.39 4.1978 2.75 8.6062 2.75H14.3438Z" fill="#DFBFD7"/>
<path d="M12.6797 16.2799C12.8614 16.2799 13.0431 16.2099 13.1865 16.0599C13.4639 15.7699 13.4639 15.2899 13.1865 14.9999L10.3177 11.9999L13.1865 8.99991C13.4639 8.70991 13.4639 8.22991 13.1865 7.93991C12.9092 7.64991 12.4502 7.64991 12.1729 7.93991L8.79727 11.4699C8.51995 11.7599 8.51995 12.2399 8.79727 12.5299L12.1729 16.0599C12.3163 16.2099 12.498 16.2799 12.6797 16.2799Z" fill="#DFBFD7"/>
</svg>
