<svg width="24" height="24" viewBox="0 0 24 24" fill="none" xmlns="http://www.w3.org/2000/svg">
<path d="M15.2244 22.75H9.48676C4.29423 22.75 2.07568 20.43 2.07568 15V9C2.07568 3.57 4.29423 1.25 9.48676 1.25H15.2244C20.4169 1.25 22.6354 3.57 22.6354 9V15C22.6354 20.43 20.4169 22.75 15.2244 22.75ZM9.48676 2.75C5.07837 2.75 3.51009 4.39 3.51009 9V15C3.51009 19.61 5.07837 21.25 9.48676 21.25H15.2244C19.6328 21.25 21.201 19.61 21.201 15V9C21.201 4.39 19.6328 2.75 15.2244 2.75H9.48676Z" fill="#DFBFD7"/>
<path d="M11.1508 16.2799C10.9692 16.2799 10.7875 16.2099 10.644 16.0599C10.3667 15.7699 10.3667 15.2899 10.644 14.9999L13.5128 11.9999L10.644 8.99991C10.3667 8.70991 10.3667 8.22991 10.644 7.93991C10.9213 7.64991 11.3804 7.64991 11.6577 7.93991L15.0333 11.4699C15.3106 11.7599 15.3106 12.2399 15.0333 12.5299L11.6577 16.0599C11.5142 16.2099 11.3325 16.2799 11.1508 16.2799Z" fill="#DFBFD7"/>
</svg>
