<svg width="23" height="24" viewBox="0 0 23 24" fill="none" xmlns="http://www.w3.org/2000/svg">
<path d="M14.344 22.75H8.60639C3.41386 22.75 1.19531 20.43 1.19531 15V9C1.19531 3.57 3.41386 1.25 8.60639 1.25H14.344C19.5365 1.25 21.7551 3.57 21.7551 9V15C21.7551 20.43 19.5365 22.75 14.344 22.75ZM8.60639 2.75C4.19799 2.75 2.62971 4.39 2.62971 9V15C2.62971 19.61 4.19799 21.25 8.60639 21.25H14.344C18.7524 21.25 20.3207 19.61 20.3207 15V9C20.3207 4.39 18.7524 2.75 14.344 2.75H8.60639Z" fill="#DFBFD7"/>
<path d="M7.4425 10.7148C7.4425 10.5331 7.5125 10.3514 7.6625 10.208C7.9525 9.93067 8.4325 9.93067 8.7225 10.208L11.7225 13.0768L14.7225 10.208C15.0125 9.93067 15.4925 9.93067 15.7825 10.208C16.0725 10.4853 16.0725 10.9443 15.7825 11.2216L12.2525 14.5973C11.9625 14.8746 11.4825 14.8746 11.1925 14.5973L7.6625 11.2216C7.5125 11.0782 7.4425 10.8965 7.4425 10.7148Z" fill="#DFBFD7"/>
</svg>
