<svg width="23" height="24" viewBox="0 0 23 24" fill="none" xmlns="http://www.w3.org/2000/svg">
<path d="M14.344 22.75H8.60639C3.41386 22.75 1.19531 20.43 1.19531 15V9C1.19531 3.57 3.41386 1.25 8.60639 1.25H14.344C19.5365 1.25 21.7551 3.57 21.7551 9V15C21.7551 20.43 19.5365 22.75 14.344 22.75ZM8.60639 2.75C4.19799 2.75 2.62971 4.39 2.62971 9V15C2.62971 19.61 4.19799 21.25 8.60639 21.25H14.344C18.7524 21.25 20.3207 19.61 20.3207 15V9C20.3207 4.39 18.7524 2.75 14.344 2.75H8.60639Z" fill="#DFBFD7"/>
<path d="M15.9999 14.0904C15.9999 14.2721 15.9299 14.4537 15.7799 14.5972C15.4899 14.8745 15.0099 14.8745 14.7199 14.5972L11.7199 11.7284L8.71988 14.5972C8.42988 14.8745 7.94988 14.8745 7.65988 14.5972C7.36988 14.3199 7.36988 13.8609 7.65988 13.5835L11.1899 10.2079C11.4799 9.9306 11.9599 9.9306 12.2499 10.2079L15.7799 13.5835C15.9299 13.727 15.9999 13.9087 15.9999 14.0904Z" fill="#DFBFD7"/>
</svg>
