<svg width="24" height="24" viewBox="0 0 24 24" fill="none" xmlns="http://www.w3.org/2000/svg">
<path d="M14.6545 22.2705H14.5302C10.2843 22.2705 8.23792 20.5205 7.8841 16.6005C7.84585 16.1905 8.13273 15.8205 8.53436 15.7805C8.91687 15.7405 9.28025 16.0505 9.3185 16.4605C9.59582 19.6005 11.0111 20.7705 14.5397 20.7705H14.664C18.5561 20.7705 19.9331 19.3305 19.9331 15.2605V8.74047C19.9331 4.67047 18.5561 3.23047 14.664 3.23047H14.5397C10.992 3.23047 9.57669 4.42047 9.3185 7.62047C9.27069 8.03047 8.93599 8.34047 8.53436 8.30047C8.13273 8.27047 7.84585 7.90047 7.87453 7.49047C8.19967 3.51047 10.2556 1.73047 14.5302 1.73047H14.6545C19.3498 1.73047 21.3579 3.83047 21.3579 8.74047V15.2605C21.3579 20.1705 19.3498 22.2705 14.6545 22.2705Z" fill="#DFBFD7"/>
<path d="M14.4257 12.75H3.54337C3.1513 12.75 2.82617 12.41 2.82617 12C2.82617 11.59 3.1513 11.25 3.54337 11.25H14.4257C14.8178 11.25 15.1429 11.59 15.1429 12C15.1429 12.41 14.8178 12.75 14.4257 12.75Z" fill="#DFBFD7"/>
<path d="M5.67612 16.0998C5.49443 16.0998 5.31274 16.0298 5.1693 15.8798L1.9658 12.5298C1.68848 12.2398 1.68848 11.7598 1.9658 11.4698L5.1693 8.11984C5.44662 7.82984 5.90563 7.82984 6.18294 8.11984C6.46026 8.40984 6.46026 8.88984 6.18294 9.17984L3.48627 11.9998L6.18294 14.8198C6.46026 15.1098 6.46026 15.5898 6.18294 15.8798C6.04907 16.0298 5.85781 16.0998 5.67612 16.0998Z" fill="#DFBFD7"/>
</svg>
