<svg width="25" height="25" viewBox="0 0 25 25" fill="none" xmlns="http://www.w3.org/2000/svg">
<path d="M12.0785 23.6979C11.8394 23.6979 11.6004 23.6667 11.3713 23.5938C6.20145 22.1042 2.45605 17.0521 2.45605 11.5729V6.99998C2.45605 5.83331 3.26291 4.57295 4.29887 4.12503L9.84722 1.75C11.2916 1.13542 12.8754 1.13542 14.3098 1.75L19.8581 4.12503C20.8941 4.57295 21.701 5.83331 21.701 6.99998V11.5729C21.701 17.0417 17.9456 22.0938 12.7857 23.5938C12.5566 23.6667 12.3176 23.6979 12.0785 23.6979ZM12.0785 2.86459C11.5107 2.86459 10.9529 2.97919 10.415 3.20836L4.86666 5.58333C4.38853 5.79166 3.95022 6.46874 3.95022 7.0104V11.5833C3.95022 16.3646 7.2374 20.7813 11.7697 22.0938C11.9689 22.1563 12.1881 22.1563 12.3873 22.0938C16.9196 20.7813 20.2068 16.3646 20.2068 11.5833V7.0104C20.2068 6.46874 19.7685 5.79166 19.2904 5.58333L13.742 3.20836C13.2041 2.97919 12.6463 2.86459 12.0785 2.86459Z" fill="#DFBFD7"/>
<path d="M12.0787 13.8022C10.5646 13.8022 9.33936 12.5209 9.33936 10.9376C9.33936 9.35425 10.5646 8.073 12.0787 8.073C13.5928 8.073 14.818 9.35425 14.818 10.9376C14.818 12.5209 13.5928 13.8022 12.0787 13.8022ZM12.0787 9.6355C11.3913 9.6355 10.8335 10.2188 10.8335 10.9376C10.8335 11.6563 11.3913 12.2397 12.0787 12.2397C12.766 12.2397 13.3238 11.6563 13.3238 10.9376C13.3238 10.2188 12.766 9.6355 12.0787 9.6355Z" fill="#DFBFD7"/>
<path d="M12.0786 16.927C11.6702 16.927 11.3315 16.5728 11.3315 16.1458V13.0208C11.3315 12.5937 11.6702 12.2395 12.0786 12.2395C12.487 12.2395 12.8257 12.5937 12.8257 13.0208V16.1458C12.8257 16.5728 12.487 16.927 12.0786 16.927Z" fill="#DFBFD7"/>
</svg>
