<svg width="25" height="25" viewBox="0 0 25 25" fill="none" xmlns="http://www.w3.org/2000/svg">
<path d="M12.0787 13.2812C8.92105 13.2812 6.35107 10.5937 6.35107 7.29159C6.35107 3.9895 8.92105 1.302 12.0787 1.302C15.2364 1.302 17.8064 3.9895 17.8064 7.29159C17.8064 10.5937 15.2364 13.2812 12.0787 13.2812ZM12.0787 2.8645C9.74782 2.8645 7.84524 4.85409 7.84524 7.29159C7.84524 9.72909 9.74782 11.7187 12.0787 11.7187C14.4096 11.7187 16.3122 9.72909 16.3122 7.29159C16.3122 4.85409 14.4096 2.8645 12.0787 2.8645Z" fill="#DFBFD7"/>
<path d="M20.6357 23.6979C20.2273 23.6979 19.8886 23.3438 19.8886 22.9167C19.8886 19.3229 16.3823 16.4063 12.0791 16.4063C7.77587 16.4063 4.26956 19.3229 4.26956 22.9167C4.26956 23.3438 3.93088 23.6979 3.52248 23.6979C3.11407 23.6979 2.77539 23.3438 2.77539 22.9167C2.77539 18.4688 6.9491 14.8438 12.0791 14.8438C17.2091 14.8438 21.3828 18.4688 21.3828 22.9167C21.3828 23.3438 21.0441 23.6979 20.6357 23.6979Z" fill="#DFBFD7"/>
</svg>
